<?xml version="1.0" standalone="no"?><!DOCTYPE svg PUBLIC "-//W3C//DTD SVG 1.1//EN" "http://www.w3.org/Graphics/SVG/1.1/DTD/svg11.dtd"><svg t="1574567046043" class="icon" viewBox="0 0 1024 1024" version="1.1" xmlns="http://www.w3.org/2000/svg" p-id="7787" data-spm-anchor-id="a313x.7781069.0.i6" xmlns:xlink="http://www.w3.org/1999/xlink" width="200" height="200"><defs><style type="text/css"></style></defs><path d="M725.4 571.7H298l-6.6-24c-5.5-19.9-8.3-40.4-8.3-61.2 0-126.1 102.6-228.6 228.6-228.6s228.6 102.6 228.6 228.6c0 20.8-2.8 41.4-8.3 61.2l-6.6 24z m-375.8-65.4h324.1c0.8-6.5 1.2-13.1 1.2-19.8 0-90-73.2-163.2-163.2-163.2s-163.2 73.2-163.2 163.2c-0.1 6.7 0.3 13.3 1.1 19.8zM511.7 227.1c-18.1 0-32.7-14.6-32.7-32.7v-88.3c0-18.1 14.6-32.7 32.7-32.7s32.7 14.6 32.7 32.7v88.3c0 18-14.7 32.7-32.7 32.7zM298.6 315.3c-8.4 0-16.7-3.2-23.1-9.6l-62.4-62.4c-12.8-12.8-12.8-33.5 0-46.3 12.8-12.8 33.5-12.8 46.3 0l62.4 62.4c12.8 12.8 12.8 33.5 0 46.3-6.4 6.4-14.8 9.6-23.2 9.6zM210.4 528.4h-88.3c-18.1 0-32.7-14.6-32.7-32.7S104 463 122.1 463h88.3c18.1 0 32.7 14.6 32.7 32.7 0 18-14.6 32.7-32.7 32.7zM901.2 528.4h-88.3c-18.1 0-32.7-14.6-32.7-32.7s14.6-32.7 32.7-32.7h88.3c18.1 0 32.7 14.6 32.7 32.7 0 18-14.6 32.7-32.7 32.7zM724.7 315.3c-8.4 0-16.7-3.2-23.1-9.6-12.8-12.8-12.8-33.5 0-46.3L764 197c12.8-12.8 33.5-12.8 46.3 0 12.8 12.8 12.8 33.5 0 46.3l-62.4 62.4c-6.5 6.4-14.8 9.6-23.2 9.6z" fill="#2A2430" p-id="7788"></path><path d="M64 631.1h895.3v65.4H64z" fill="#2A2430" p-id="7789"></path><path d="M489.3 776.3h46.9v168.8h-46.9z" fill="#2A2430" p-id="7790"></path><path d="M417.23 819.569l95.6-95.6 33.163 33.163-95.6 95.6z" fill="#2A2430" p-id="7791" data-spm-anchor-id="a313x.7781069.0.i5" class="selected"></path><path d="M479.527 757.055l33.163-33.163 95.6 95.6-33.163 33.163z" fill="#2A2430" p-id="7792"></path></svg>