<?xml version="1.0" standalone="no"?><!DOCTYPE svg PUBLIC "-//W3C//DTD SVG 1.1//EN" "http://www.w3.org/Graphics/SVG/1.1/DTD/svg11.dtd"><svg t="1574567071517" class="icon" viewBox="0 0 1024 1024" version="1.1" xmlns="http://www.w3.org/2000/svg" p-id="8100" xmlns:xlink="http://www.w3.org/1999/xlink" width="200" height="200"><defs><style type="text/css"></style></defs><path d="M725.4 569.3H298l-6.6-24c-5.5-19.8-8.3-40.4-8.3-61.2 0-126.1 102.6-228.6 228.6-228.6s228.6 102.6 228.6 228.6c0 20.8-2.8 41.4-8.3 61.2l-6.6 24z m-375.8-65.4h324.1c0.8-6.5 1.2-13.1 1.2-19.8 0-90-73.2-163.2-163.2-163.2s-163.2 73.2-163.2 163.2c0 6.7 0.4 13.2 1.1 19.8zM511.7 224.7c-18.1 0-32.7-14.6-32.7-32.7v-88.3c0-18.1 14.6-32.7 32.7-32.7s32.7 14.6 32.7 32.7V192c0 18-14.7 32.7-32.7 32.7zM298.6 312.9c-8.4 0-16.7-3.2-23.1-9.6l-62.4-62.4c-12.8-12.8-12.8-33.5 0-46.3 12.8-12.8 33.5-12.8 46.3 0l62.4 62.4c12.8 12.8 12.8 33.5 0 46.2-6.4 6.5-14.8 9.7-23.2 9.7zM210.4 525.9h-88.3c-18.1 0-32.7-14.6-32.7-32.7s14.6-32.7 32.7-32.7h88.3c18.1 0 32.7 14.6 32.7 32.7s-14.6 32.7-32.7 32.7zM901.2 525.9h-88.3c-18.1 0-32.7-14.6-32.7-32.7s14.6-32.7 32.7-32.7h88.3c18.1 0 32.7 14.6 32.7 32.7 0.1 18.1-14.6 32.7-32.7 32.7zM724.7 312.9c-8.4 0-16.7-3.2-23.1-9.6-12.8-12.8-12.8-33.5 0-46.2l62.4-62.4c12.8-12.8 33.5-12.8 46.3 0 12.8 12.8 12.8 33.5 0 46.3l-62.4 62.4c-6.5 6.3-14.8 9.5-23.2 9.5zM64 628.7h895.3v65.4H64z" fill="#2A2430" p-id="8101"></path><path d="M185.4 942.6z" fill="#2A2430" p-id="8102"></path><path d="M488.2 728.1h46.9v168.8h-46.9z" fill="#2A2430" p-id="8103"></path><path d="M478.442 916.067l95.6-95.6 33.163 33.163-95.6 95.6z" fill="#2A2430" p-id="8104"></path><path d="M416.145 853.567l33.163-33.163 95.6 95.6-33.163 33.162z" fill="#2A2430" p-id="8105"></path></svg>